<svg width="20" height="20" viewBox="0 0 20 20" fill="none" xmlns="http://www.w3.org/2000/svg">
<g clip-path="url(#clip0_40000225_51)">
<path d="M13.2266 6.2312C13.5132 6.12653 13.791 6.40433 13.6864 6.691L10.9048 14.3074C10.7873 14.6278 10.33 14.618 10.2261 14.2927L9.11035 10.8072L5.62484 9.6923C5.29971 9.58752 5.29046 9.13094 5.611 9.01359L13.2266 6.2312Z" fill="#1A1A1A"/>
<path fill-rule="evenodd" clip-rule="evenodd" d="M10.0007 0.833252C15.0632 0.833252 19.1673 4.9373 19.1673 9.99992C19.1673 15.0625 15.0632 19.1666 10.0007 19.1666C4.93804 19.1666 0.833984 15.0625 0.833984 9.99992C0.833984 4.93731 4.93804 0.833252 10.0007 0.833252ZM10.0007 2.49992C5.85851 2.49992 2.50065 5.85778 2.50065 9.99992C2.50065 14.142 5.85852 17.4999 10.0007 17.4999C14.1427 17.4999 17.5007 14.142 17.5007 9.99992C17.5007 5.85778 14.1428 2.49992 10.0007 2.49992Z" fill="#1A1A1A"/>
</g>
<defs>
<clipPath id="clip0_40000225_51">
<rect width="20" height="20" fill="white"/>
</clipPath>
</defs>
</svg>
