<svg width="16" height="16" viewBox="0 0 16 16" fill="none" xmlns="http://www.w3.org/2000/svg">
<g clip-path="url(#clip0_40000210_3562)">
<path fill-rule="evenodd" clip-rule="evenodd" d="M8.00065 0.889893C11.9274 0.889907 15.1107 4.07319 15.1107 7.99992C15.1107 11.9267 11.9274 15.1099 8.00065 15.1099C4.07391 15.1099 0.890625 11.9267 0.890625 7.99992C0.890633 4.07318 4.07391 0.889893 8.00065 0.889893ZM10.6829 5.29549C10.4226 5.03514 10.0006 5.03514 9.74023 5.29549L7.98958 7.04614L6.23893 5.29549C5.97858 5.03514 5.55592 5.03514 5.29557 5.29549C5.03552 5.55585 5.03536 5.97794 5.29557 6.2382L7.04687 7.98885L5.29557 9.7395C5.03538 9.99977 5.0355 10.4219 5.29557 10.6822C5.55592 10.9426 5.97858 10.9426 6.23893 10.6822L7.98958 8.93156L9.74023 10.6822C10.0006 10.9426 10.4226 10.9426 10.6829 10.6822C10.9433 10.4219 10.9433 9.99984 10.6829 9.7395L8.93229 7.98885L10.6829 6.2382C10.9433 5.97787 10.9432 5.55585 10.6829 5.29549Z" fill="#1A1A1A"/>
</g>
<defs>
<clipPath id="clip0_40000210_3562">
<rect width="16" height="16" fill="white"/>
</clipPath>
</defs>
</svg>
