<svg width="20" height="20" viewBox="0 0 20 20" fill="none" xmlns="http://www.w3.org/2000/svg">
<path fill-rule="evenodd" clip-rule="evenodd" d="M12.2226 2.5C13.7758 2.5 15.0809 3.56231 15.4509 5H18.0559C18.5161 5 18.8892 5.3731 18.8892 5.83333C18.8892 6.29357 18.5161 6.66667 18.0559 6.66667H15.4509C15.0809 8.10436 13.7758 9.16667 12.2226 9.16667C10.6694 9.16667 9.36429 8.10436 8.99426 6.66667H1.94466C1.48442 6.66667 1.11133 6.29357 1.11133 5.83333C1.11133 5.3731 1.48442 5 1.94466 5H8.99426C9.36429 3.56231 10.6694 2.5 12.2226 2.5ZM12.2226 4.16667C11.3021 4.16667 10.5559 4.91286 10.5559 5.83333C10.5559 6.75381 11.3021 7.5 12.2226 7.5C13.1431 7.5 13.8892 6.75381 13.8892 5.83333C13.8892 4.91286 13.1431 4.16667 12.2226 4.16667Z" fill="#1A1A1A"/>
<path fill-rule="evenodd" clip-rule="evenodd" d="M1.94466 13.3333C1.48442 13.3333 1.11133 13.7064 1.11133 14.1667C1.11133 14.6269 1.48442 15 1.94466 15H4.54968C4.91971 16.4377 6.2248 17.5 7.778 17.5C9.33119 17.5 10.6363 16.4377 11.0063 15H18.0558C18.516 15 18.8891 14.6269 18.8891 14.1667C18.8891 13.7064 18.516 13.3333 18.0558 13.3333H11.0063C10.6363 11.8956 9.33119 10.8333 7.778 10.8333C6.2248 10.8333 4.91971 11.8956 4.54968 13.3333H1.94466ZM9.44466 14.1667C9.44466 13.2462 8.69847 12.5 7.778 12.5C6.85752 12.5 6.11133 13.2462 6.11133 14.1667C6.11133 15.0871 6.85752 15.8333 7.778 15.8333C8.69847 15.8333 9.44466 15.0871 9.44466 14.1667Z" fill="#1A1A1A"/>
</svg>
