<svg width="24" height="24" viewBox="0 0 24 24" fill="none" xmlns="http://www.w3.org/2000/svg">
<path fill-rule="evenodd" clip-rule="evenodd" d="M11.9999 6.59961C9.01846 6.59961 6.59961 9.01846 6.59961 11.9999C6.59961 14.9814 9.01846 17.4003 11.9999 17.4003C14.9814 17.4003 17.4003 14.9814 17.4003 11.9999C17.4003 9.01846 14.9814 6.59961 11.9999 6.59961ZM11.9999 15.503C10.0657 15.503 8.49691 13.9342 8.49691 11.9999C8.49691 10.0657 10.0657 8.49691 11.9999 8.49691C13.9342 8.49691 15.503 10.0657 15.503 11.9999C15.503 13.9342 13.9342 15.503 11.9999 15.503Z" fill="#1A1A1A"/>
<path d="M17.6123 7.64653C18.3064 7.64653 18.8731 7.08391 18.8731 6.38576C18.8731 5.69173 18.3064 5.125 17.6123 5.125C16.9183 5.125 16.3516 5.68762 16.3516 6.38576C16.3516 7.0798 16.9142 7.64653 17.6123 7.64653Z" fill="#1A1A1A"/>
<path fill-rule="evenodd" clip-rule="evenodd" d="M11.9995 1.48633C9.14535 1.48633 8.78807 1.49865 7.66693 1.54793C6.54991 1.59721 5.78195 1.7779 5.11666 2.03663C4.42263 2.30767 3.83537 2.66496 3.25222 3.25222C2.66496 3.83537 2.30767 4.42263 2.03663 5.11256C1.7779 5.78195 1.59721 6.5458 1.54793 7.66283C1.49865 8.78807 1.48633 9.14535 1.48633 11.9995C1.48633 14.8537 1.49865 15.211 1.54793 16.3321C1.59721 17.4491 1.7779 18.2171 2.03663 18.8824C2.30767 19.5764 2.66496 20.1637 3.25222 20.7468C3.83537 21.33 4.42263 21.6914 5.11256 21.9583C5.78195 22.217 6.5458 22.3977 7.66283 22.447C8.78396 22.4963 9.14124 22.5086 11.9954 22.5086C14.8496 22.5086 15.2069 22.4963 16.328 22.447C17.445 22.3977 18.213 22.217 18.8783 21.9583C19.5682 21.6914 20.1555 21.33 20.7386 20.7468C21.3218 20.1637 21.6832 19.5764 21.9501 18.8865C22.2088 18.2171 22.3895 17.4532 22.4388 16.3362C22.4881 15.2151 22.5004 14.8578 22.5004 12.0036C22.5004 9.14946 22.4881 8.79217 22.4388 7.67104C22.3895 6.55401 22.2088 5.78606 21.9501 5.12077C21.6914 4.42263 21.3341 3.83537 20.7468 3.25222C20.1637 2.66906 19.5764 2.30767 18.8865 2.04073C18.2171 1.78201 17.4532 1.60132 16.3362 1.55204C15.211 1.49865 14.8537 1.48633 11.9995 1.48633ZM11.9995 3.37952C14.8085 3.37952 15.1412 3.39184 16.2459 3.44112C17.2725 3.4863 17.8269 3.65878 18.1966 3.80252C18.6853 3.99142 19.0384 4.2214 19.4039 4.5869C19.7735 4.9565 19.9994 5.30557 20.1883 5.79427C20.332 6.16388 20.5045 6.72239 20.5497 7.74496C20.599 8.85377 20.6113 9.18642 20.6113 11.9913C20.6113 14.8003 20.599 15.1329 20.5497 16.2376C20.5045 17.2643 20.332 17.8187 20.1883 18.1883C19.9994 18.677 19.7694 19.0302 19.4039 19.3957C19.0343 19.7653 18.6853 19.9912 18.1966 20.1801C17.8269 20.3238 17.2684 20.4963 16.2459 20.5415C15.137 20.5908 14.8044 20.6031 11.9995 20.6031C9.19053 20.6031 8.85788 20.5908 7.75318 20.5415C6.7265 20.4963 6.17209 20.3238 5.80249 20.1801C5.31379 19.9912 4.96061 19.7612 4.59511 19.3957C4.22551 19.0261 3.99964 18.677 3.81073 18.1883C3.66699 17.8187 3.49451 17.2602 3.44934 16.2376C3.40006 15.1288 3.38774 14.7962 3.38774 11.9913C3.38774 9.18231 3.40006 8.84967 3.44934 7.74496C3.49451 6.71828 3.66699 6.16388 3.81073 5.79427C3.99964 5.30557 4.22961 4.9524 4.59511 4.5869C4.96472 4.21729 5.31379 3.99142 5.80249 3.80252C6.17209 3.65878 6.7306 3.4863 7.75318 3.44112C8.85788 3.39184 9.19053 3.37952 11.9995 3.37952Z" fill="#1A1A1A"/>
</svg>
